{
	"asset":{
		"version":"2.0",
		"generator":"Created using the official Cinema 4D glTF Exporter 1.000x284978"
	},
	"scenes":[{
		"nodes":[0,
		1,
		2,
		3,
		4]
	}],
	"nodes":[{
		"name":"polySurface2",
		"translation":[136.0752716064453,
		36.23891830444336,
		93.58348083496094],
		"rotation":[0.0,
		-0.7096271514892578,
		0.0,
		-0.7045773863792419],
		"scale":[1.0,
		1.0,
		1.0],
		"mesh":0
	},
	{
		"name":"Plane.3",
		"translation":[1.6484977006912232,
		199.0515899658203,
		200.21217346191407],
		"rotation":[4.329780301713277e-17,
		0.7071067690849304,
		0.7071067690849304,
		-4.329780301713277e-17],
		"scale":[1.0,
		1.0,
		1.0],
		"mesh":1
	},
	{
		"name":"Plane.2",
		"translation":[199.88595581054688,
		199.0515899658203,
		0.8617089986801148],
		"rotation":[0.5,
		0.5,
		0.5,
		-0.5],
		"scale":[1.0,
		1.0,
		1.0],
		"mesh":2
	},
	{
		"name":"Plane.1",
		"translation":[0.0,
		199.0515899658203,
		-200.1616668701172],
		"rotation":[0.7071067690849304,
		0.0,
		0.0,
		-0.7071067690849304],
		"scale":[1.0,
		1.0,
		1.0],
		"mesh":3
	},
	{
		"name":"Plane",
		"mesh":4
	}],
	"meshes":[{
		"name":"polySurface2",
		"primitives":[{
			"attributes":{
				"POSITION":1,
				"NORMAL":2,
				"TEXCOORD_0":3
			},
			"indices":0
		}]
	},
	{
		"name":"Plane.3",
		"primitives":[{
			"attributes":{
				"POSITION":5,
				"NORMAL":6,
				"TEXCOORD_0":7
			},
			"indices":4
		}]
	},
	{
		"name":"Plane.2",
		"primitives":[{
			"attributes":{
				"POSITION":9,
				"NORMAL":10,
				"TEXCOORD_0":11
			},
			"indices":8
		}]
	},
	{
		"name":"Plane.1",
		"primitives":[{
			"attributes":{
				"POSITION":13,
				"NORMAL":14,
				"TEXCOORD_0":15
			},
			"indices":12
		}]
	},
	{
		"name":"Plane",
		"primitives":[{
			"attributes":{
				"POSITION":17,
				"NORMAL":18,
				"TEXCOORD_0":19
			},
			"indices":16
		}]
	}],
	"accessors":[{
		"bufferView":0,
		"type":"SCALAR",
		"componentType":5123,
		"count":29436,
		"byteOffset":0,
		"min":[0],
		"max":[6051]
	},
	{
		"bufferView":1,
		"type":"VEC3",
		"componentType":5126,
		"count":6052,
		"byteOffset":0,
		"min":[-104.97065734863281,
		-34.94002914428711,
		-63.491214752197269],
		"max":[104.97065734863281,
		52.90462875366211,
		63.491214752197269]
	},
	{
		"bufferView":1,
		"type":"VEC3",
		"componentType":5126,
		"count":6052,
		"byteOffset":12,
		"min":[-1.0,
		-1.0,
		-1.0],
		"max":[1.0,
		1.0,
		1.0]
	},
	{
		"bufferView":1,
		"type":"VEC2",
		"componentType":5126,
		"count":6052,
		"byteOffset":24,
		"min":[-0.8095177412033081,
		0.0],
		"max":[1.5000317096710206,
		1.1175241470336915]
	},
	{
		"bufferView":2,
		"type":"SCALAR",
		"componentType":5123,
		"count":600,
		"byteOffset":0,
		"min":[0],
		"max":[120]
	},
	{
		"bufferView":3,
		"type":"VEC3",
		"componentType":5126,
		"count":121,
		"byteOffset":0,
		"min":[-200.0,
		0.0,
		-200.0],
		"max":[200.0,
		0.0,
		200.0]
	},
	{
		"bufferView":3,
		"type":"VEC3",
		"componentType":5126,
		"count":121,
		"byteOffset":12,
		"min":[0.0,
		1.0,
		0.0],
		"max":[0.0,
		1.0,
		0.0]
	},
	{
		"bufferView":3,
		"type":"VEC2",
		"componentType":5126,
		"count":121,
		"byteOffset":24,
		"min":[0.0,
		0.0],
		"max":[1.0,
		1.0]
	},
	{
		"bufferView":4,
		"type":"SCALAR",
		"componentType":5123,
		"count":600,
		"byteOffset":0,
		"min":[0],
		"max":[120]
	},
	{
		"bufferView":5,
		"type":"VEC3",
		"componentType":5126,
		"count":121,
		"byteOffset":0,
		"min":[-200.0,
		0.0,
		-200.0],
		"max":[200.0,
		0.0,
		200.0]
	},
	{
		"bufferView":5,
		"type":"VEC3",
		"componentType":5126,
		"count":121,
		"byteOffset":12,
		"min":[0.0,
		1.0,
		0.0],
		"max":[0.0,
		1.0,
		0.0]
	},
	{
		"bufferView":5,
		"type":"VEC2",
		"componentType":5126,
		"count":121,
		"byteOffset":24,
		"min":[0.0,
		0.0],
		"max":[1.0,
		1.0]
	},
	{
		"bufferView":6,
		"type":"SCALAR",
		"componentType":5123,
		"count":600,
		"byteOffset":0,
		"min":[0],
		"max":[120]
	},
	{
		"bufferView":7,
		"type":"VEC3",
		"componentType":5126,
		"count":121,
		"byteOffset":0,
		"min":[-200.0,
		0.0,
		-200.0],
		"max":[200.0,
		0.0,
		200.0]
	},
	{
		"bufferView":7,
		"type":"VEC3",
		"componentType":5126,
		"count":121,
		"byteOffset":12,
		"min":[0.0,
		1.0,
		0.0],
		"max":[0.0,
		1.0,
		0.0]
	},
	{
		"bufferView":7,
		"type":"VEC2",
		"componentType":5126,
		"count":121,
		"byteOffset":24,
		"min":[0.0,
		0.0],
		"max":[1.0,
		1.0]
	},
	{
		"bufferView":8,
		"type":"SCALAR",
		"componentType":5123,
		"count":600,
		"byteOffset":0,
		"min":[0],
		"max":[120]
	},
	{
		"bufferView":9,
		"type":"VEC3",
		"componentType":5126,
		"count":121,
		"byteOffset":0,
		"min":[-200.0,
		0.0,
		-200.0],
		"max":[200.0,
		0.0,
		200.0]
	},
	{
		"bufferView":9,
		"type":"VEC3",
		"componentType":5126,
		"count":121,
		"byteOffset":12,
		"min":[0.0,
		1.0,
		0.0],
		"max":[0.0,
		1.0,
		0.0]
	},
	{
		"bufferView":9,
		"type":"VEC2",
		"componentType":5126,
		"count":121,
		"byteOffset":24,
		"min":[0.0,
		0.0],
		"max":[1.0,
		1.0]
	}],
	"bufferViews":[{
		"buffer":0,
		"byteOffset":0,
		"byteLength":58872,
		"target":34963
	},
	{
		"buffer":0,
		"byteOffset":58872,
		"byteLength":193664,
		"target":34962,
		"byteStride":32
	},
	{
		"buffer":1,
		"byteOffset":0,
		"byteLength":1200,
		"target":34963
	},
	{
		"buffer":1,
		"byteOffset":1200,
		"byteLength":3872,
		"target":34962,
		"byteStride":32
	},
	{
		"buffer":2,
		"byteOffset":0,
		"byteLength":1200,
		"target":34963
	},
	{
		"buffer":2,
		"byteOffset":1200,
		"byteLength":3872,
		"target":34962,
		"byteStride":32
	},
	{
		"buffer":3,
		"byteOffset":0,
		"byteLength":1200,
		"target":34963
	},
	{
		"buffer":3,
		"byteOffset":1200,
		"byteLength":3872,
		"target":34962,
		"byteStride":32
	},
	{
		"buffer":4,
		"byteOffset":0,
		"byteLength":1200,
		"target":34963
	},
	{
		"buffer":4,
		"byteOffset":1200,
		"byteLength":3872,
		"target":34962,
		"byteStride":32
	}],
	"buffers":[{
		"uri":"data:application/octet-stream;base64,",
		"byteLength":252536
	},
	{
		"uri":"data:application/octet-stream;base64,",
		"byteLength":5072
	},
	{
		"uri":"data:application/octet-stream;base64,",
		"byteLength":5072
	},
	{
		"uri":"data:application/octet-stream;base64,",
		"byteLength":5072
	},
	{
		"uri":"data:application/octet-stream;base64,",
		"byteLength":5072
	}]
}